<svg width="259" height="84" viewBox="0 0 259 84" fill="none" xmlns="http://www.w3.org/2000/svg">
<path d="M90.9122 52.3187C90.1744 52.3187 89.495 52.1342 88.8738 51.7654C88.2719 51.3965 87.7866 50.9112 87.4178 50.3094C87.0489 49.6882 86.8645 49.0087 86.8645 48.271V31.3523H90.7083V48.0963C90.7083 48.1933 90.7374 48.2807 90.7957 48.3583C90.8733 48.4166 90.9607 48.4457 91.0578 48.4457H103.579C103.676 48.4457 103.764 48.4166 103.841 48.3583C103.919 48.2807 103.958 48.1933 103.958 48.0963V31.3523H107.831V48.271C107.831 49.0087 107.646 49.6882 107.278 50.3094C106.909 50.9112 106.414 51.3965 105.792 51.7654C105.191 52.1342 104.521 52.3187 103.783 52.3187H90.9122ZM118.551 52.3187V35.2252H109.989V31.3523H130.956V35.2252H122.424V52.3187H118.551ZM137.123 52.3187C136.385 52.3187 135.706 52.1342 135.085 51.7654C134.483 51.3965 133.998 50.9112 133.629 50.3094C133.26 49.6882 133.075 49.0087 133.075 48.271V35.3999C133.075 34.6622 133.26 33.9925 133.629 33.3907C133.998 32.7694 134.483 32.2744 135.085 31.9055C135.706 31.5367 136.385 31.3523 137.123 31.3523H149.994C150.732 31.3523 151.402 31.5367 152.003 31.9055C152.625 32.2744 153.12 32.7694 153.489 33.3907C153.857 33.9925 154.042 34.6622 154.042 35.3999V48.271C154.042 49.0087 153.857 49.6882 153.489 50.3094C153.12 50.9112 152.625 51.3965 152.003 51.7654C151.402 52.1342 150.732 52.3187 149.994 52.3187H137.123ZM137.269 48.4457H149.79C149.887 48.4457 149.975 48.4166 150.052 48.3583C150.13 48.2807 150.169 48.1933 150.169 48.0963V35.5747C150.169 35.4776 150.13 35.3999 150.052 35.3417C149.975 35.2641 149.887 35.2252 149.79 35.2252H137.269C137.172 35.2252 137.084 35.2641 137.007 35.3417C136.948 35.3999 136.919 35.4776 136.919 35.5747V48.0963C136.919 48.1933 136.948 48.2807 137.007 48.3583C137.084 48.4166 137.172 48.4457 137.269 48.4457ZM173.964 52.3187L167.644 44.7766H172.682L178.157 51.2412V52.3187H173.964ZM157.249 52.3187V31.3814H174.138C174.876 31.3814 175.555 31.5658 176.177 31.9347C176.798 32.3035 177.293 32.7986 177.662 33.4198C178.031 34.0216 178.215 34.6914 178.215 35.4291V41.0783C178.215 41.8161 178.031 42.4955 177.662 43.1167C177.293 43.738 176.798 44.233 176.177 44.6019C175.555 44.9513 174.876 45.126 174.138 45.126L161.092 45.1551V52.3187H157.249ZM161.442 41.2531H173.964C174.061 41.2531 174.148 41.2239 174.226 41.1657C174.303 41.1075 174.342 41.0298 174.342 40.9327V35.5747C174.342 35.4776 174.303 35.3999 174.226 35.3417C174.148 35.2641 174.061 35.2252 173.964 35.2252H161.442C161.345 35.2252 161.257 35.2641 161.18 35.3417C161.122 35.3999 161.092 35.4776 161.092 35.5747V40.9327C161.092 41.0298 161.122 41.1075 161.18 41.1657C161.257 41.2239 161.345 41.2531 161.442 41.2531ZM181.337 52.3187V35.3999C181.337 34.6622 181.521 33.9925 181.89 33.3907C182.259 32.7694 182.744 32.2744 183.346 31.9055C183.967 31.5367 184.647 31.3523 185.384 31.3523H198.226C198.964 31.3523 199.643 31.5367 200.265 31.9055C200.886 32.2744 201.381 32.7694 201.75 33.3907C202.119 33.9925 202.303 34.6622 202.303 35.3999V52.3187H198.43V45.2716H185.18V52.3187H181.337ZM185.18 41.4278H198.43V35.5747C198.43 35.4776 198.391 35.3999 198.313 35.3417C198.236 35.2641 198.148 35.2252 198.051 35.2252H185.53C185.433 35.2252 185.345 35.2641 185.268 35.3417C185.21 35.3999 185.18 35.4776 185.18 35.5747V41.4278ZM205.563 52.3187V48.5039H209.377V52.3187H205.563ZM211.811 52.3187V31.3523H215.625V52.3187H211.811ZM218.504 52.3187V35.3999C218.504 34.6622 218.689 33.9925 219.058 33.3907C219.426 32.7694 219.912 32.2744 220.514 31.9055C221.135 31.5367 221.814 31.3523 222.552 31.3523H235.394C236.132 31.3523 236.811 31.5367 237.432 31.9055C238.054 32.2744 238.549 32.7694 238.917 33.3907C239.286 33.9925 239.471 34.6622 239.471 35.3999V52.3187H235.598V45.2716H222.348V52.3187H218.504ZM222.348 41.4278H235.598V35.5747C235.598 35.4776 235.559 35.3999 235.481 35.3417C235.404 35.2641 235.316 35.2252 235.219 35.2252H222.698C222.601 35.2252 222.513 35.2641 222.436 35.3417C222.377 35.3999 222.348 35.4776 222.348 35.5747V41.4278Z" fill="url(#paint0_linear_1959_316)"/>
<path d="M60.8445 58.8049C58.9833 59.1126 57.1877 59.2657 55.4097 59.2701C49.6176 59.2845 43.7271 57.7217 36.0894 54.2905V33.0008L55.8511 39.9425L60.4 38.3415L55.5237 36.5828L55.5238 36.5824L32.084 28.5178L55.3953 27.4085C56.2211 27.3692 56.8586 26.6684 56.8193 25.8431C56.78 25.0179 56.0787 24.3808 55.2529 24.4201L32.1846 25.5178L55.851 17.3295L83.2095 27.0394L83.2005 27.0425L87.8273 28.5825L92.1773 27.0473L55.8636 14.1591L18.6133 27.0473L21.1673 27.926V48.6476H24.1612V28.956L33.0955 32.03V56.2077C44.0425 61.3439 51.9989 63.1851 60.8445 61.8342V58.8049Z" fill="url(#paint1_linear_1959_316)"/>
<path d="M22.5395 57.9199C21.1468 57.9199 20.0177 56.7917 20.0177 55.3999C20.0177 54.0081 21.1468 52.8798 22.5395 52.8798C23.9323 52.8798 25.0613 54.0081 25.0613 55.3999C25.0613 56.7917 23.9323 57.9199 22.5395 57.9199Z" fill="url(#paint2_linear_1959_316)"/>
<path d="M20.9544 59.9359C22.2072 60.3858 22.9288 60.3718 24.2687 59.9359C25.5313 64.2364 25.962 66.634 26.07 70.8801C23.2409 71.8393 21.7209 71.8959 19.1531 70.8801C19.2241 66.4381 19.7024 64.0639 20.9544 59.9359Z" fill="url(#paint3_linear_1959_316)"/>
<path fill-rule="evenodd" clip-rule="evenodd" d="M82.538 27.6406L84.947 28.5058L84.9356 28.5098L86.368 29.0243L74.4689 33.1412V51.7046H72.8635V51.7045H71.9082L71.9082 34.0272L61.5902 37.5972L59.1813 36.7319L59.1921 36.7282L57.9558 36.2841L57.9131 36.1606L82.538 27.6406Z" fill="url(#paint4_linear_1959_316)"/>
<path fill-rule="evenodd" clip-rule="evenodd" d="M56.9541 35.8119L81.5695 27.2952L83.9784 28.1604L73.5099 31.7825V51.3559H71.9045V32.3379L59.2101 36.7301L56.9967 35.9351L56.9541 35.8119Z" fill="url(#paint5_linear_1959_316)"/>
<path d="M60.8445 58.8049C58.9833 59.1127 57.1877 59.2657 55.4097 59.2701C49.6176 59.2845 43.7271 57.7217 36.0894 54.2905V33.0008L55.8511 39.9426L60.4 38.3415L55.5237 36.5828L55.5238 36.5824L32.084 28.5178L55.3953 27.4085C56.2211 27.3692 56.8586 26.6684 56.8193 25.8432C56.78 25.0179 56.0787 24.3808 55.2529 24.4201L32.1846 25.5178L55.851 17.3295L83.2095 27.0394L83.2005 27.0426L87.8273 28.5825L92.1773 27.0473L55.8636 14.1591L18.6133 27.0473L21.1673 27.926V48.6476H24.1612V28.9561L33.0955 32.03V56.2077C44.0425 61.3439 51.9989 63.1852 60.8445 61.8342V58.8049Z" fill="url(#paint6_linear_1959_316)"/>
<path d="M22.5395 57.92C21.1468 57.92 20.0177 56.7917 20.0177 55.3999C20.0177 54.0081 21.1468 52.8799 22.5395 52.8799C23.9323 52.8799 25.0613 54.0081 25.0613 55.3999C25.0613 56.7917 23.9323 57.92 22.5395 57.92Z" fill="url(#paint7_linear_1959_316)"/>
<path d="M20.9544 59.936C22.2072 60.3858 22.9288 60.3718 24.2687 59.936C25.5313 64.2364 25.962 66.6341 26.07 70.8802C23.2409 71.8394 21.7209 71.896 19.1531 70.8802C19.2241 66.4381 19.7024 64.064 20.9544 59.936Z" fill="url(#paint8_linear_1959_316)"/>
<defs>
<linearGradient id="paint0_linear_1959_316" x1="256.516" y1="22.4365" x2="23.0061" y2="78.679" gradientUnits="userSpaceOnUse">
<stop stop-color="#A3218E"/>
<stop offset="0.43109" stop-color="#4B2395"/>
<stop offset="0.73718" stop-color="#06EFFF"/>
</linearGradient>
<linearGradient id="paint1_linear_1959_316" x1="99.3564" y1="14.3421" x2="-16.5267" y2="22.8171" gradientUnits="userSpaceOnUse">
<stop stop-color="#A3218E"/>
<stop offset="0.43109" stop-color="#4B2395"/>
<stop offset="0.73718" stop-color="#06EFFF"/>
</linearGradient>
<linearGradient id="paint2_linear_1959_316" x1="99.3564" y1="14.3421" x2="-16.5267" y2="22.8171" gradientUnits="userSpaceOnUse">
<stop stop-color="#A3218E"/>
<stop offset="0.43109" stop-color="#4B2395"/>
<stop offset="0.73718" stop-color="#06EFFF"/>
</linearGradient>
<linearGradient id="paint3_linear_1959_316" x1="99.3564" y1="14.3421" x2="-16.5267" y2="22.8171" gradientUnits="userSpaceOnUse">
<stop stop-color="#A3218E"/>
<stop offset="0.43109" stop-color="#4B2395"/>
<stop offset="0.73718" stop-color="#06EFFF"/>
</linearGradient>
<linearGradient id="paint4_linear_1959_316" x1="89.1449" y1="27.7172" x2="44.2857" y2="30.7475" gradientUnits="userSpaceOnUse">
<stop stop-color="#A3218E"/>
<stop offset="0.43109" stop-color="#4B2395"/>
<stop offset="0.73718" stop-color="#06EFFF"/>
</linearGradient>
<linearGradient id="paint5_linear_1959_316" x1="86.6156" y1="27.3718" x2="43.993" y2="30.1066" gradientUnits="userSpaceOnUse">
<stop stop-color="#A3218E"/>
<stop offset="0.43109" stop-color="#4B2395"/>
<stop offset="0.73718" stop-color="#06EFFF"/>
</linearGradient>
<linearGradient id="paint6_linear_1959_316" x1="99.3564" y1="14.3421" x2="-16.5267" y2="22.8172" gradientUnits="userSpaceOnUse">
<stop stop-color="#A3218E"/>
<stop offset="0.43109" stop-color="#4B2395"/>
<stop offset="0.73718" stop-color="#06EFFF"/>
</linearGradient>
<linearGradient id="paint7_linear_1959_316" x1="99.3564" y1="14.3421" x2="-16.5267" y2="22.8172" gradientUnits="userSpaceOnUse">
<stop stop-color="#A3218E"/>
<stop offset="0.43109" stop-color="#4B2395"/>
<stop offset="0.73718" stop-color="#06EFFF"/>
</linearGradient>
<linearGradient id="paint8_linear_1959_316" x1="99.3564" y1="14.3421" x2="-16.5267" y2="22.8172" gradientUnits="userSpaceOnUse">
<stop stop-color="#A3218E"/>
<stop offset="0.43109" stop-color="#4B2395"/>
<stop offset="0.73718" stop-color="#06EFFF"/>
</linearGradient>
</defs>
</svg>
